<svg width="148" height="30" viewBox="0 0 148 30" fill="none" xmlns="http://www.w3.org/2000/svg">
<g clip-path="url(#clip0_17733_1384)">
<g clip-path="url(#clip1_17733_1384)">
<path d="M42 0.00708008H0V29.9913H42V0.00708008Z" fill="#002E73"/>
<path d="M11.178 17.2356H9.0615L6.02457 20.6275V17.2356H4.36621V21.2261V25.2161H6.03973V21.5415L9.23404 25.2161H11.5313L7.80651 20.9726L11.178 17.2356Z" fill="#F4CA00"/>
<path d="M23.0988 20.9749C22.5456 20.5716 21.3891 20.1047 20.9601 19.9368C20.5346 19.7683 20.2023 19.5509 20.1673 19.179C20.1137 18.8048 20.3748 18.437 20.8505 18.286C21.0399 18.2271 21.2789 18.2149 21.5243 18.2493C22.1766 18.3402 22.6884 18.8911 22.6884 18.8911C22.6884 18.8911 23.3558 18.149 23.6892 17.8098C22.8592 16.9599 21.8315 16.7571 21.1571 16.7571C20.5742 16.7571 19.9417 16.8311 19.1939 17.4169C18.2641 18.145 18.2717 19.1044 18.2717 19.2408C18.2717 19.3772 18.2531 20.1099 18.8838 20.659C19.4778 21.1766 20.1901 21.408 20.1901 21.408C20.1901 21.408 20.6412 21.5596 20.9962 21.7251C21.5337 21.9769 21.7907 22.2649 21.7907 22.2649C21.7907 22.2649 22.3334 22.8542 21.8274 23.5082C21.3203 24.1704 20.4669 23.8917 20.0927 23.7204C19.5296 23.4622 19.0779 22.7685 19.0779 22.7685L17.8742 23.8579L17.8672 23.8644C18.9152 25.5856 20.5952 25.5606 20.9164 25.5606C21.6362 25.5606 22.3981 25.3776 22.9758 24.9369C23.1028 24.8372 23.2159 24.7352 23.3208 24.6279C23.3302 24.6192 23.3377 24.6116 23.3453 24.6041C23.4491 24.4933 23.5418 24.3761 23.6216 24.2531L23.624 24.252H23.6228C23.8548 23.8952 23.9929 23.4709 24.0331 22.9224C24.1008 21.9763 23.6502 21.38 23.0982 20.9749H23.0988Z" fill="#F4CA00"/>
<path d="M25.2451 17.168V21.3916V25.216H27.0702V21.3916V17.168H25.2451Z" fill="#F4CA00"/>
<path d="M13.0727 17.6788C12.1663 18.3299 11.2383 19.6065 11.2383 21.2083C11.2383 21.4251 11.2575 21.6396 11.2931 21.8477C11.317 21.9969 11.3502 22.1415 11.3893 22.2849C11.3893 22.2849 11.3957 22.3059 11.4073 22.3379L11.4056 22.3368C11.4091 22.3484 11.4114 22.3577 11.4161 22.3671C11.4411 22.4522 11.4808 22.5757 11.4936 22.6136H11.5023C11.8719 23.604 12.5813 24.4253 13.3525 24.912C14.7229 25.7782 16.6768 25.4757 16.6768 25.4757V23.7415C15.2731 23.8878 14.615 23.4582 14.2496 23.214C14.1872 23.1715 14.0566 23.0625 13.9103 22.8987L13.7926 22.7605C13.6952 22.6334 13.5944 22.4825 13.5064 22.307C13.3402 21.9806 13.2161 21.5685 13.2161 21.0759C13.2161 19.9061 14.0607 19.1326 14.7235 18.7822C15.4241 18.4092 16.6768 18.5444 16.6768 18.5444V16.9135C16.3008 16.9135 14.4792 16.6646 13.0733 17.6782L13.0727 17.6788Z" fill="#F4CA00"/>
<path d="M4.54746 4.69287H4.83774V5.41625H4.84474C4.88321 5.35563 4.92401 5.29967 4.96132 5.24662L5.38218 4.69345H5.74183L5.18865 5.36262L5.77797 6.26436H5.43347L4.98289 5.54507L4.83716 5.71178V6.26436H4.54688V4.69345L4.54746 4.69287Z" fill="white"/>
<path d="M7.00403 5.68607C7.00403 6.10285 6.705 6.28996 6.40889 6.28996C6.08363 6.28996 5.82715 6.07079 5.82715 5.70473C5.82715 5.33867 6.07721 5.10376 6.42812 5.10376C6.77903 5.10376 7.00403 5.34216 7.00403 5.68666V5.68607ZM6.12909 5.69715C6.12909 5.91632 6.24159 6.08245 6.41705 6.08245C6.5925 6.08245 6.70092 5.9239 6.70092 5.69307C6.70092 5.51645 6.6199 5.31127 6.41938 5.31127C6.21886 5.31127 6.12909 5.50887 6.12909 5.69773V5.69715Z" fill="white"/>
<path d="M7.24351 5.49488C7.24351 5.34158 7.24176 5.22908 7.23535 5.12941H7.48775L7.49999 5.34333H7.5064C7.56236 5.18595 7.69934 5.10376 7.82525 5.10376C7.85381 5.10376 7.8713 5.10609 7.89345 5.11134V5.37889C7.86722 5.37422 7.84157 5.37189 7.80543 5.37189C7.66787 5.37189 7.57052 5.45874 7.54487 5.58873C7.53904 5.61438 7.53671 5.64469 7.53671 5.675V6.26373H7.24293V5.49488H7.24351Z" fill="white"/>
<path d="M8.27803 5.77768C8.28503 5.98286 8.44707 6.07088 8.63535 6.07088C8.77175 6.07088 8.86676 6.05048 8.9577 6.02017L9.00025 6.21486C8.89999 6.25683 8.76184 6.28655 8.59513 6.28655C8.21916 6.28655 7.99707 6.06097 7.99707 5.71357C7.99707 5.3988 8.19409 5.10327 8.56424 5.10327C8.93438 5.10327 9.06495 5.40638 9.06495 5.65528C9.06495 5.7089 9.05971 5.75145 9.05504 5.7771H8.27803V5.77768ZM8.78924 5.57658C8.78982 5.47225 8.74319 5.29913 8.54675 5.29913C8.36663 5.29913 8.29027 5.45942 8.27803 5.57658H8.78924Z" fill="white"/>
<path d="M10.2011 5.99166C10.2011 6.09484 10.2064 6.19509 10.221 6.26388H9.95633L9.93418 6.13855H9.92777C9.85957 6.22599 9.73774 6.29011 9.5856 6.29011C9.35244 6.29011 9.2207 6.12515 9.2207 5.95203C9.2207 5.66815 9.4801 5.52068 9.90853 5.52301V5.50494C9.90853 5.43033 9.87705 5.30676 9.67304 5.30676C9.55762 5.30676 9.43988 5.34231 9.36118 5.39128L9.30406 5.20475C9.38916 5.15346 9.53955 5.10449 9.72317 5.10449C10.0945 5.10449 10.2017 5.33532 10.2017 5.58422V5.99225L10.2011 5.99166ZM9.91552 5.70954C9.70743 5.70779 9.51157 5.74918 9.51157 5.92171C9.51157 6.03363 9.58502 6.08493 9.67712 6.08493C9.79603 6.08493 9.87997 6.01032 9.90795 5.92871C9.91552 5.90773 9.91552 5.88674 9.91552 5.86576V5.70954Z" fill="white"/>
<path d="M10.5119 5.46691C10.5119 5.33634 10.5066 5.22733 10.502 5.12941H10.7578L10.7724 5.29961H10.7777C10.8301 5.2116 10.9578 5.10376 11.149 5.10376C11.3518 5.10376 11.5623 5.232 11.5623 5.59106V6.26373H11.2696V5.62312C11.2696 5.45991 11.2067 5.33575 11.0476 5.33575C10.9316 5.33575 10.8499 5.41794 10.8185 5.50421C10.8097 5.52811 10.8045 5.5625 10.8045 5.59514V6.26314H10.5124V5.46632L10.5119 5.46691Z" fill="white"/>
<path d="M5.69651 8.93824C5.62831 8.97089 5.47617 9.00877 5.28031 9.00877C4.77085 9.00877 4.46191 8.69692 4.46191 8.21603C4.46191 7.69842 4.83031 7.38599 5.32111 7.38599C5.51464 7.38599 5.65104 7.42562 5.70875 7.45535L5.64812 7.68443C5.57176 7.65121 5.46334 7.62323 5.33219 7.62323C5.00693 7.62323 4.77085 7.82374 4.77085 8.20088C4.77085 8.54828 4.97545 8.76745 5.33161 8.76745C5.44761 8.76745 5.57176 8.74472 5.65046 8.71266L5.69651 8.93766V8.93824Z" fill="white"/>
<path d="M6.93735 8.642C6.93735 8.77781 6.94143 8.88915 6.94667 8.98241H6.69194L6.67795 8.81279H6.66979C6.62025 8.89206 6.50483 9.00864 6.29732 9.00864C6.0898 9.00864 5.89453 8.88565 5.89453 8.51493V7.84751H6.18598V8.46596C6.18598 8.65424 6.24894 8.77548 6.40341 8.77548C6.52232 8.77548 6.59868 8.69679 6.62724 8.6216C6.6389 8.59828 6.64415 8.56564 6.64415 8.53299V7.84692H6.93735V8.64141V8.642Z" fill="white"/>
<path d="M7.24188 8.71677C7.30659 8.75699 7.43191 8.80129 7.53683 8.80129C7.66566 8.80129 7.72278 8.74766 7.72278 8.67305C7.72278 8.59844 7.67557 8.5588 7.53159 8.50751C7.30659 8.4329 7.21274 8.31166 7.21274 8.17701C7.21274 7.97649 7.38236 7.82202 7.65108 7.82202C7.7799 7.82202 7.89241 7.85292 7.96119 7.88964L7.90173 8.09074C7.85393 8.06276 7.75892 8.02545 7.65691 8.02545C7.5549 8.02545 7.49486 8.07616 7.49486 8.14611C7.49486 8.21606 7.54907 8.25162 7.69655 8.30466C7.90873 8.37694 8.00432 8.48244 8.00665 8.64974C8.00665 8.85783 7.84169 9.00705 7.53509 9.00705C7.39402 9.00705 7.2687 8.97441 7.18359 8.9272L7.2413 8.71735L7.24188 8.71677Z" fill="white"/>
<path d="M8.58319 7.55664V7.84751H8.8624V8.0626H8.58319V8.56272C8.58319 8.7032 8.62108 8.77257 8.73242 8.77257C8.78604 8.77257 8.81402 8.7714 8.84725 8.76091L8.85191 8.97716C8.80878 8.99465 8.73183 9.00806 8.64032 9.00806C8.53015 9.00806 8.44213 8.97308 8.38734 8.91538C8.32438 8.85009 8.29582 8.74517 8.29582 8.59595V8.0626H8.13086V7.84751H8.29582V7.63591L8.58319 7.55664Z" fill="white"/>
<path d="M10.1726 8.40434C10.1726 8.82227 9.87297 9.0088 9.57627 9.0088C9.25159 9.0088 8.99512 8.78963 8.99512 8.42416C8.99512 8.05868 9.24577 7.82202 9.59609 7.82202C9.94642 7.82202 10.172 8.06043 10.172 8.40434H10.1726ZM9.29764 8.41658C9.29764 8.63516 9.41131 8.80129 9.58618 8.80129C9.76105 8.80129 9.87006 8.64216 9.87006 8.41191C9.87006 8.2353 9.78845 8.03012 9.58793 8.03012C9.38741 8.03012 9.29764 8.2283 9.29764 8.41658Z" fill="white"/>
<path d="M10.4146 8.1856C10.4146 8.05561 10.4105 7.94603 10.4053 7.84694H10.6559L10.6699 8.01481H10.6763C10.7305 7.92563 10.836 7.82129 11.0331 7.82129C11.1852 7.82129 11.3053 7.90581 11.3548 8.03172H11.3595C11.3997 7.96876 11.4481 7.92155 11.5 7.88891C11.5676 7.84519 11.641 7.82129 11.739 7.82129C11.9296 7.82129 12.1237 7.94953 12.1237 8.31384V8.98184H11.8386V8.35464C11.8386 8.16637 11.771 8.05445 11.6305 8.05445C11.5309 8.05445 11.4574 8.12381 11.4254 8.206C11.4178 8.23048 11.4119 8.26895 11.4119 8.3016V8.98184H11.1269V8.32433C11.1269 8.16636 11.0628 8.05445 10.9264 8.05445C10.8162 8.05445 10.7439 8.1378 10.7154 8.21475C10.7043 8.24447 10.7008 8.27828 10.7008 8.31034V8.98126H10.4146V8.18444V8.1856Z" fill="white"/>
<path d="M12.6415 8.49628C12.6491 8.70088 12.8117 8.78948 13 8.78948C13.1347 8.78948 13.232 8.76792 13.3206 8.7376L13.3637 8.93346C13.2635 8.97543 13.1265 9.00574 12.9586 9.00574C12.5826 9.00574 12.3623 8.77899 12.3623 8.43158C12.3623 8.11798 12.557 7.82129 12.9289 7.82129C13.3008 7.82129 13.429 8.1244 13.429 8.37388C13.429 8.42809 13.4238 8.46947 13.4197 8.4957H12.6421L12.6415 8.49628ZM13.1516 8.2946C13.1545 8.19085 13.1061 8.01889 12.912 8.01889C12.7301 8.01889 12.6538 8.17861 12.6415 8.2946H13.1516Z" fill="white"/>
<path d="M13.666 8.21358C13.666 8.05969 13.6619 7.9472 13.6543 7.84694H13.9079L13.9201 8.06203H13.9271C13.9848 7.90348 14.1195 7.82129 14.2454 7.82129C14.2745 7.82129 14.2902 7.82362 14.3153 7.82887V8.09642C14.2885 8.09234 14.2623 8.09 14.2273 8.09C14.0874 8.09 13.99 8.17627 13.9638 8.30626C13.9597 8.33133 13.9568 8.36222 13.9568 8.39253V8.98184H13.666V8.213V8.21358Z" fill="white"/>
<path d="M4.54224 11.3898C4.63551 11.4422 4.78065 11.4906 4.92987 11.4906C5.11465 11.4906 5.22074 11.4032 5.22074 11.275C5.22074 11.156 5.13972 11.0867 4.93803 11.0144C4.67048 10.9205 4.50202 10.7836 4.50202 10.5574C4.50202 10.298 4.72178 10.1045 5.07152 10.1045C5.24522 10.1045 5.37113 10.1418 5.45449 10.1838L5.3857 10.414C5.32566 10.3837 5.21433 10.34 5.06394 10.34C4.87858 10.34 4.7993 10.4356 4.7993 10.5288C4.7993 10.6507 4.89315 10.7055 5.10708 10.7876C5.38629 10.8908 5.52035 11.0284 5.52035 11.2534C5.52035 11.5075 5.32392 11.7267 4.91297 11.7267C4.73985 11.7267 4.56497 11.6806 4.47754 11.6264L4.54341 11.3892L4.54224 11.3898Z" fill="white"/>
<path d="M6.6867 11.4276C6.6867 11.5308 6.69195 11.6311 6.70711 11.7016H6.44305L6.42032 11.5757H6.41449C6.34571 11.6643 6.2233 11.7267 6.07116 11.7267C5.83858 11.7267 5.70801 11.5617 5.70801 11.3898C5.70801 11.1047 5.9674 10.9572 6.39525 10.9602V10.9421C6.39525 10.8669 6.36378 10.7433 6.15859 10.7433C6.04434 10.7433 5.9266 10.7777 5.84732 10.8267L5.7902 10.6401C5.87588 10.5883 6.02627 10.5393 6.20931 10.5393C6.58062 10.5393 6.68787 10.7701 6.68787 11.0196V11.4271L6.6867 11.4276ZM6.40166 11.1467C6.19357 11.1444 5.99655 11.1863 5.99655 11.3589C5.99655 11.4702 6.06999 11.5215 6.16267 11.5215C6.28217 11.5215 6.36494 11.4475 6.3935 11.3653C6.40108 11.3449 6.40108 11.3239 6.40108 11.3029V11.1461L6.40166 11.1467Z" fill="white"/>
<path d="M7.31854 10.2748V10.5662H7.59776V10.7807H7.31854V11.2814C7.31854 11.4213 7.3576 11.4913 7.46893 11.4913C7.5214 11.4913 7.54996 11.4895 7.5826 11.479L7.58843 11.6953C7.54646 11.7128 7.4666 11.7262 7.37567 11.7262C7.26608 11.7262 7.17865 11.6918 7.12385 11.6329C7.05857 11.5676 7.03001 11.4627 7.03001 11.3135V10.7801H6.86621V10.5656H7.03001V10.3529L7.31796 10.2742L7.31854 10.2748Z" fill="white"/>
<path d="M8.13052 10.249C8.13052 10.3341 8.0664 10.4023 7.96497 10.4023C7.86354 10.4023 7.80176 10.3347 7.80176 10.249C7.80176 10.1633 7.86821 10.0928 7.96497 10.0928C8.06173 10.0928 8.12818 10.161 8.13052 10.249ZM7.81924 11.7016V10.5661H8.11128V11.7016H7.81924Z" fill="white"/>
<path d="M8.41746 11.4353C8.48275 11.4755 8.60807 11.5198 8.71299 11.5198C8.84123 11.5198 8.89894 11.4656 8.89894 11.391C8.89894 11.3164 8.85056 11.2767 8.70775 11.2254C8.48216 11.1514 8.38773 11.0296 8.38773 10.8943C8.38773 10.6944 8.55852 10.5405 8.82724 10.5405C8.95606 10.5405 9.06682 10.5708 9.13735 10.6081L9.07789 10.8087C9.03009 10.7813 8.93508 10.7434 8.83191 10.7434C8.72873 10.7434 8.67044 10.7941 8.67044 10.8635C8.67044 10.9328 8.72407 10.969 8.87213 11.0226C9.0843 11.0943 9.18048 11.1998 9.18107 11.3682C9.18107 11.5758 9.01727 11.7244 8.71066 11.7244C8.57018 11.7244 8.44311 11.6923 8.35742 11.6445L8.41688 11.4347L8.41746 11.4353Z" fill="white"/>
<path d="M9.45621 11.7017V10.7813H9.29883V10.5668H9.45621V10.5173C9.45621 10.371 9.49818 10.2241 9.59727 10.1308C9.68296 10.0516 9.79721 10.0212 9.8998 10.0212C9.97733 10.0212 10.0403 10.0352 10.0852 10.0492L10.0659 10.2701C10.0339 10.2591 9.99423 10.2492 9.94002 10.2492C9.79488 10.2492 9.74708 10.3686 9.74708 10.5085V10.5668H10.0001V10.7813H9.74941V11.7017H9.45679H9.45621Z" fill="white"/>
<path d="M11.0836 11.4276C11.0836 11.5308 11.0888 11.6311 11.1028 11.7016H10.8382L10.816 11.5757H10.8096C10.7408 11.6643 10.619 11.7267 10.4674 11.7267C10.2343 11.7267 10.1025 11.5617 10.1025 11.3898C10.1025 11.1047 10.3625 10.9572 10.7898 10.9602V10.9421C10.7898 10.8669 10.7589 10.7433 10.556 10.7433C10.44 10.7433 10.3217 10.7777 10.243 10.8267L10.1859 10.6401C10.271 10.5883 10.422 10.5393 10.605 10.5393C10.9757 10.5393 11.0836 10.7701 11.0836 11.0196V11.4271V11.4276ZM10.7979 11.1467C10.5898 11.1444 10.3928 11.1863 10.3928 11.3589C10.3928 11.4702 10.4669 11.5215 10.5584 11.5215C10.6784 11.5215 10.7618 11.4475 10.7892 11.3653C10.7979 11.3449 10.7979 11.3239 10.7979 11.3029V11.1461V11.1467Z" fill="white"/>
<path d="M12.2477 11.6661C12.1848 11.6952 12.0623 11.725 11.9166 11.725C11.5546 11.725 11.3203 11.4965 11.3203 11.1444C11.3203 10.7923 11.5576 10.5405 11.965 10.5405C12.0728 10.5405 12.1818 10.565 12.2489 10.5918L12.1964 10.8087C12.1486 10.7848 12.0798 10.7644 11.9743 10.7644C11.7511 10.7644 11.6176 10.9252 11.6205 11.1328C11.6205 11.3659 11.775 11.4988 11.9743 11.4988C12.0752 11.4988 12.148 11.4778 12.2052 11.4539L12.2471 11.6661H12.2477Z" fill="white"/>
<path d="M12.8351 10.2748V10.5662H13.1144V10.7807H12.8351V11.2814C12.8351 11.4213 12.873 11.4913 12.9861 11.4913C13.038 11.4913 13.066 11.4895 13.1004 11.479L13.1039 11.6953C13.0607 11.7128 12.9838 11.7262 12.8929 11.7262C12.7839 11.7262 12.6958 11.6918 12.6399 11.6329C12.5758 11.5676 12.5478 11.4627 12.5478 11.3135V10.7801H12.3828V10.5656H12.5478V10.3529L12.8357 10.2742L12.8351 10.2748Z" fill="white"/>
<path d="M13.6475 10.249C13.6475 10.3341 13.5822 10.4023 13.4808 10.4023C13.3794 10.4023 13.3193 10.3347 13.3193 10.249C13.3193 10.1633 13.3858 10.0928 13.4831 10.0928C13.5805 10.0928 13.6458 10.161 13.6475 10.249ZM13.3351 11.7016V10.5661H13.6289V11.7016H13.3351Z" fill="white"/>
<path d="M15.0474 11.1228C15.0474 11.5402 14.7484 11.7267 14.4522 11.7267C14.127 11.7267 13.8711 11.5081 13.8711 11.1427C13.8711 10.7772 14.1217 10.5405 14.4727 10.5405C14.8236 10.5405 15.0474 10.7783 15.0474 11.1234V11.1228ZM14.1736 11.1357C14.1736 11.3543 14.2867 11.5198 14.4622 11.5198C14.6376 11.5198 14.746 11.3612 14.746 11.1304C14.746 10.9532 14.665 10.7469 14.4645 10.7469C14.264 10.7469 14.1742 10.9456 14.1742 11.1351L14.1736 11.1357Z" fill="white"/>
<path d="M15.2896 10.9048C15.2896 10.7749 15.2855 10.6641 15.2803 10.5668H15.5344L15.549 10.7364H15.5572C15.6084 10.6478 15.7355 10.5405 15.9273 10.5405C16.1296 10.5405 16.34 10.6693 16.34 11.0284V11.7022H16.0468V11.0611C16.0468 10.8978 15.9838 10.7749 15.8241 10.7749C15.7075 10.7749 15.6277 10.8559 15.5962 10.9427C15.588 10.9649 15.5822 11.0004 15.5822 11.0325V11.7022H15.289V10.9048H15.2896Z" fill="white"/>
<path d="M4.84047 12.8489V14.4204H4.54785V12.8489H4.84047Z" fill="white"/>
<path d="M5.17827 13.6223C5.17827 13.4911 5.17303 13.3821 5.16895 13.2842H5.42309L5.43708 13.4538H5.44582C5.49712 13.3658 5.62244 13.2585 5.81655 13.2585C6.01066 13.2585 6.22867 13.3874 6.22867 13.7458V14.4197H5.93546V13.7785C5.93546 13.6153 5.87368 13.4917 5.71396 13.4917C5.59738 13.4917 5.51694 13.5745 5.48605 13.6607C5.47614 13.6835 5.47089 13.7185 5.47089 13.7505V14.4203H5.17769V13.6229L5.17827 13.6223Z" fill="white"/>
<path d="M7.61029 12.7654V14.1008C7.61029 14.2174 7.61612 14.3433 7.61962 14.4202H7.36081L7.34624 14.2413H7.34216C7.27221 14.366 7.13231 14.4459 6.96618 14.4459C6.68697 14.4459 6.4678 14.215 6.4678 13.8659C6.46488 13.4853 6.70737 13.2597 6.98658 13.2597C7.1463 13.2597 7.26055 13.3226 7.31418 13.4066H7.31767V12.766H7.61088L7.61029 12.7654ZM7.31767 13.7569C7.31767 13.7347 7.31476 13.7044 7.31126 13.6811C7.28561 13.5715 7.19235 13.4812 7.05828 13.4812C6.87059 13.4812 6.76508 13.6438 6.76508 13.8537C6.76508 14.0635 6.87059 14.215 7.05595 14.215C7.17545 14.215 7.28037 14.1358 7.30893 14.0122C7.31476 13.9871 7.31767 13.9592 7.31767 13.9283V13.7575V13.7569Z" fill="white"/>
<path d="M8.1335 13.9324C8.13991 14.1376 8.30196 14.2267 8.49082 14.2267C8.62722 14.2267 8.72223 14.2052 8.81258 14.1749L8.85572 14.3713C8.75546 14.4133 8.61673 14.443 8.4506 14.443C8.07463 14.443 7.85254 14.2168 7.85254 13.8694C7.85254 13.5541 8.04898 13.2585 8.41912 13.2585C8.78927 13.2585 8.92042 13.5622 8.92042 13.8111C8.92042 13.8648 8.91517 13.9073 8.91051 13.9324H8.1335ZM8.64412 13.7324C8.64587 13.6269 8.59807 13.4538 8.40163 13.4538C8.2221 13.4538 8.14574 13.6153 8.1335 13.7324H8.64412Z" fill="white"/>
<path d="M9.33202 13.2843L9.47017 13.4988C9.50922 13.5594 9.54245 13.6148 9.57451 13.6737H9.57976C9.61415 13.6107 9.64679 13.5524 9.68293 13.4941L9.81175 13.2837H10.1306L9.74238 13.8293L10.1364 14.4192H9.80359L9.66311 14.193C9.62522 14.1324 9.59141 14.0724 9.5576 14.0094H9.55469C9.51913 14.0741 9.48416 14.1301 9.4486 14.193L9.31395 14.4192H8.99219L9.39439 13.8415L9.00618 13.2837H9.33202V13.2843Z" fill="white"/>
<path d="M42.0001 0.00699161C42.0001 0.00699161 27.0702 -0.419106 26.4599 5.5008C25.9008 10.9293 39.1724 10.9043 39.1724 19.8115C39.1724 30.6738 19.9319 29.9913 13.1143 29.9913H42.0001V0.00699161Z" fill="url(#paint0_linear_17733_1384)"/>
</g>
<path d="M48.352 8V7.568C48.9653 7.02933 49.4693 6.53867 49.864 6.096C50.264 5.65333 50.56 5.24267 50.752 4.864C50.944 4.48 51.04 4.12 51.04 3.784C51.04 3.56 51 3.36 50.92 3.184C50.8453 3.008 50.728 2.872 50.568 2.776C50.408 2.67467 50.2053 2.624 49.96 2.624C49.72 2.624 49.496 2.688 49.288 2.816C49.0853 2.944 48.904 3.10667 48.744 3.304L48.32 2.888C48.5547 2.62667 48.808 2.41867 49.08 2.264C49.352 2.10933 49.6747 2.032 50.048 2.032C50.4 2.032 50.7013 2.104 50.952 2.248C51.208 2.38667 51.4053 2.58667 51.544 2.848C51.688 3.104 51.76 3.40533 51.76 3.752C51.76 4.14133 51.6613 4.536 51.464 4.936C51.272 5.336 51.0027 5.744 50.656 6.16C50.3147 6.57067 49.9147 6.992 49.456 7.424C49.6107 7.41333 49.7707 7.40267 49.936 7.392C50.1067 7.376 50.2667 7.368 50.416 7.368H52.04V8H48.352ZM54.5015 8.104C54.1335 8.104 53.8108 7.992 53.5335 7.768C53.2615 7.544 53.0508 7.20533 52.9015 6.752C52.7522 6.29867 52.6775 5.73067 52.6775 5.048C52.6775 4.36533 52.7522 3.80267 52.9015 3.36C53.0508 2.912 53.2615 2.57867 53.5335 2.36C53.8108 2.14133 54.1335 2.032 54.5015 2.032C54.8748 2.032 55.1975 2.144 55.4695 2.368C55.7415 2.58667 55.9522 2.91733 56.1015 3.36C56.2508 3.80267 56.3255 4.36533 56.3255 5.048C56.3255 5.73067 56.2508 6.29867 56.1015 6.752C55.9522 7.20533 55.7415 7.544 55.4695 7.768C55.1975 7.992 54.8748 8.104 54.5015 8.104ZM54.5015 7.512C54.7255 7.512 54.9202 7.42667 55.0855 7.256C55.2562 7.08533 55.3868 6.81867 55.4775 6.456C55.5735 6.088 55.6215 5.61867 55.6215 5.048C55.6215 4.47733 55.5735 4.01333 55.4775 3.656C55.3868 3.29333 55.2562 3.02933 55.0855 2.864C54.9202 2.69333 54.7255 2.608 54.5015 2.608C54.2828 2.608 54.0882 2.69333 53.9175 2.864C53.7468 3.02933 53.6135 3.29333 53.5175 3.656C53.4268 4.01333 53.3815 4.47733 53.3815 5.048C53.3815 5.61867 53.4268 6.088 53.5175 6.456C53.6135 6.81867 53.7468 7.08533 53.9175 7.256C54.0882 7.42667 54.2828 7.512 54.5015 7.512ZM56.907 8V7.568C57.5203 7.02933 58.0243 6.53867 58.419 6.096C58.819 5.65333 59.115 5.24267 59.307 4.864C59.499 4.48 59.595 4.12 59.595 3.784C59.595 3.56 59.555 3.36 59.475 3.184C59.4003 3.008 59.283 2.872 59.123 2.776C58.963 2.67467 58.7603 2.624 58.515 2.624C58.275 2.624 58.051 2.688 57.843 2.816C57.6403 2.944 57.459 3.10667 57.299 3.304L56.875 2.888C57.1097 2.62667 57.363 2.41867 57.635 2.264C57.907 2.10933 58.2297 2.032 58.603 2.032C58.955 2.032 59.2563 2.104 59.507 2.248C59.763 2.38667 59.9603 2.58667 60.099 2.848C60.243 3.104 60.315 3.40533 60.315 3.752C60.315 4.14133 60.2163 4.536 60.019 4.936C59.827 5.336 59.5577 5.744 59.211 6.16C58.8697 6.57067 58.4697 6.992 58.011 7.424C58.1657 7.41333 58.3257 7.40267 58.491 7.392C58.6617 7.376 58.8217 7.368 58.971 7.368H60.595V8H56.907ZM62.9285 8.104C62.6245 8.104 62.3552 8.06667 62.1205 7.992C61.8912 7.91733 61.6885 7.82133 61.5125 7.704C61.3418 7.58667 61.1872 7.46133 61.0485 7.328L61.4165 6.848C61.5285 6.96 61.6512 7.06667 61.7845 7.168C61.9232 7.264 62.0805 7.344 62.2565 7.408C62.4325 7.46667 62.6325 7.496 62.8565 7.496C63.0858 7.496 63.2938 7.44 63.4805 7.328C63.6725 7.216 63.8245 7.056 63.9365 6.848C64.0485 6.64 64.1045 6.39467 64.1045 6.112C64.1045 5.696 63.9925 5.37067 63.7685 5.136C63.5498 4.896 63.2565 4.776 62.8885 4.776C62.6965 4.776 62.5285 4.80533 62.3845 4.864C62.2405 4.92267 62.0832 5.008 61.9125 5.12L61.5205 4.872L61.7125 2.136H64.5605V2.76H62.3525L62.2005 4.456C62.3285 4.38133 62.4618 4.32533 62.6005 4.288C62.7445 4.24533 62.9045 4.224 63.0805 4.224C63.4058 4.224 63.7018 4.29067 63.9685 4.424C64.2352 4.552 64.4485 4.75467 64.6085 5.032C64.7685 5.30933 64.8485 5.664 64.8485 6.096C64.8485 6.52267 64.7552 6.88533 64.5685 7.184C64.3872 7.48267 64.1498 7.712 63.8565 7.872C63.5632 8.02667 63.2538 8.104 62.9285 8.104ZM70.798 1.392H71.462V6.752H70.798V1.392ZM68.75 2.328H71.046V2.864H68.75V2.328ZM66.83 7.92H71.654V8.464H66.83V7.92ZM66.83 6.288H67.494V8.16H66.83V6.288ZM65.934 1.912H66.59V5.328H65.934V1.912ZM65.934 5.12H66.478C66.99 5.12 67.4967 5.10133 67.998 5.064C68.5047 5.02667 69.038 4.95733 69.598 4.856L69.67 5.408C69.094 5.51467 68.55 5.58667 68.038 5.624C67.526 5.656 67.006 5.672 66.478 5.672H65.934V5.12ZM68.75 3.712H71.046V4.248H68.75V3.712ZM79.2904 1.392H79.9544V6.816H79.2904V1.392ZM79.7464 3.768H81.0184V4.32H79.7464V3.768ZM74.3544 2.272H78.6264V2.808H74.3544V2.272ZM76.4904 3.2C76.8318 3.2 77.1331 3.25867 77.3944 3.376C77.6558 3.488 77.8584 3.64533 78.0024 3.848C78.1464 4.04533 78.2184 4.28 78.2184 4.552C78.2184 4.824 78.1464 5.06133 78.0024 5.264C77.8584 5.46133 77.6558 5.616 77.3944 5.728C77.1331 5.84 76.8318 5.896 76.4904 5.896C76.1491 5.896 75.8478 5.84 75.5864 5.728C75.3251 5.616 75.1198 5.46133 74.9704 5.264C74.8264 5.06133 74.7544 4.824 74.7544 4.552C74.7544 4.28 74.8264 4.04533 74.9704 3.848C75.1198 3.64533 75.3251 3.488 75.5864 3.376C75.8478 3.25867 76.1491 3.2 76.4904 3.2ZM76.4904 3.72C76.1651 3.72 75.9011 3.79733 75.6984 3.952C75.4958 4.10133 75.3944 4.30133 75.3944 4.552C75.3944 4.80267 75.4958 5.00267 75.6984 5.152C75.9011 5.30133 76.1651 5.376 76.4904 5.376C76.8211 5.376 77.0851 5.30133 77.2824 5.152C77.4851 5.00267 77.5864 4.80267 77.5864 4.552C77.5864 4.30133 77.4851 4.10133 77.2824 3.952C77.0851 3.79733 76.8211 3.72 76.4904 3.72ZM76.1624 1.392H76.8264V2.544H76.1624V1.392ZM75.4504 7.92H80.2744V8.464H75.4504V7.92ZM75.4504 6.384H76.1064V8.144H75.4504V6.384ZM82.3698 1.728H87.0258V2.272H82.3698V1.728ZM81.5378 4.312H88.0978V4.856H81.5378V4.312ZM84.4738 4.688H85.1378V6.384H84.4738V4.688ZM86.5938 1.728H87.2498V2.256C87.2498 2.55467 87.2391 2.89333 87.2178 3.272C87.1965 3.64533 87.1271 4.08 87.0098 4.576L86.3618 4.504C86.4791 4.01333 86.5458 3.58933 86.5618 3.232C86.5831 2.87467 86.5938 2.54933 86.5938 2.256V1.728ZM82.2178 6.176H87.2898V8.624H86.6258V6.712H82.2178V6.176ZM90.5132 1.824H91.0652V2.712C91.0652 3.18667 90.9825 3.624 90.8172 4.024C90.6519 4.41867 90.4199 4.76267 90.1212 5.056C89.8225 5.34933 89.4705 5.57333 89.0652 5.728L88.7052 5.2C89.0732 5.072 89.3932 4.88533 89.6652 4.64C89.9372 4.38933 90.1452 4.09867 90.2892 3.768C90.4385 3.43733 90.5132 3.08533 90.5132 2.712V1.824ZM90.6332 1.824H91.1692V2.736C91.1692 2.98133 91.2119 3.22133 91.2972 3.456C91.3879 3.69067 91.5105 3.912 91.6652 4.12C91.8252 4.32267 92.0119 4.50133 92.2252 4.656C92.4439 4.80533 92.6865 4.928 92.9532 5.024L92.6172 5.552C92.2225 5.40267 91.8759 5.18933 91.5772 4.912C91.2785 4.63467 91.0465 4.30933 90.8812 3.936C90.7159 3.56267 90.6332 3.16267 90.6332 2.736V1.824ZM93.6892 1.384H94.3532V6.728H93.6892V1.384ZM94.1452 3.6H95.4172V4.16H94.1452V3.6ZM89.8572 7.92H94.6732V8.464H89.8572V7.92ZM89.8572 6.216H90.5292V8.184H89.8572V6.216ZM99.5686 3.112H101.513V3.656H99.5686V3.112ZM97.9126 1.72C98.2699 1.72 98.5872 1.792 98.8646 1.936C99.1472 2.07467 99.3686 2.26933 99.5286 2.52C99.6886 2.77067 99.7686 3.06133 99.7686 3.392C99.7686 3.72267 99.6886 4.016 99.5286 4.272C99.3686 4.52267 99.1472 4.72 98.8646 4.864C98.5872 5.00267 98.2699 5.072 97.9126 5.072C97.5499 5.072 97.2272 5.00267 96.9446 4.864C96.6672 4.72 96.4486 4.52267 96.2886 4.272C96.1286 4.016 96.0486 3.72267 96.0486 3.392C96.0486 3.06133 96.1286 2.77067 96.2886 2.52C96.4486 2.26933 96.6672 2.07467 96.9446 1.936C97.2272 1.792 97.5499 1.72 97.9126 1.72ZM97.9126 2.28C97.6726 2.28 97.4592 2.328 97.2726 2.424C97.0912 2.51467 96.9472 2.64533 96.8406 2.816C96.7339 2.98133 96.6806 3.17333 96.6806 3.392C96.6806 3.61067 96.7339 3.80533 96.8406 3.976C96.9472 4.14133 97.0912 4.272 97.2726 4.368C97.4592 4.464 97.6726 4.512 97.9126 4.512C98.1472 4.512 98.3552 4.464 98.5366 4.368C98.7232 4.272 98.8699 4.14133 98.9766 3.976C99.0832 3.80533 99.1366 3.61067 99.1366 3.392C99.1366 3.17333 99.0832 2.98133 98.9766 2.816C98.8699 2.64533 98.7232 2.51467 98.5366 2.424C98.3552 2.328 98.1472 2.28 97.9126 2.28ZM101.225 1.384H101.889V5.272H101.225V1.384ZM97.2566 5.632H97.9126V6.536H101.225V5.632H101.889V8.528H97.2566V5.632ZM97.9126 7.064V7.984H101.225V7.064H97.9126ZM105.48 1.912C105.859 1.912 106.192 1.984 106.48 2.128C106.773 2.26667 107.003 2.464 107.168 2.72C107.333 2.976 107.416 3.27467 107.416 3.616C107.416 3.952 107.333 4.25067 107.168 4.512C107.003 4.768 106.773 4.968 106.48 5.112C106.192 5.25067 105.859 5.32 105.48 5.32C105.107 5.32 104.773 5.25067 104.48 5.112C104.187 4.968 103.955 4.768 103.784 4.512C103.619 4.25067 103.536 3.952 103.536 3.616C103.536 3.27467 103.619 2.976 103.784 2.72C103.955 2.464 104.187 2.26667 104.48 2.128C104.773 1.984 105.107 1.912 105.48 1.912ZM105.48 2.488C105.235 2.488 105.013 2.536 104.816 2.632C104.624 2.72267 104.472 2.85333 104.36 3.024C104.248 3.19467 104.192 3.392 104.192 3.616C104.192 3.84 104.248 4.03733 104.36 4.208C104.472 4.37867 104.624 4.512 104.816 4.608C105.013 4.69867 105.235 4.744 105.48 4.744C105.731 4.744 105.952 4.69867 106.144 4.608C106.336 4.512 106.488 4.37867 106.6 4.208C106.712 4.03733 106.768 3.84 106.768 3.616C106.768 3.392 106.712 3.19467 106.6 3.024C106.488 2.85333 106.336 2.72267 106.144 2.632C105.952 2.536 105.731 2.488 105.48 2.488ZM108.368 1.384H109.032V8.632H108.368V1.384ZM103.264 7.048L103.176 6.488C103.619 6.488 104.104 6.48533 104.632 6.48C105.16 6.46933 105.704 6.448 106.264 6.416C106.829 6.37867 107.373 6.32 107.896 6.24L107.952 6.728C107.408 6.82933 106.856 6.904 106.296 6.952C105.741 6.99467 105.205 7.02133 104.688 7.032C104.171 7.04267 103.696 7.048 103.264 7.048ZM112.66 2.112H117.316V2.656H112.66V2.112ZM111.964 7.056H118.5V7.608H111.964V7.056ZM114.508 4.472H115.164V7.336H114.508V4.472ZM117.06 2.112H117.724V2.824C117.724 3.12267 117.719 3.43733 117.708 3.768C117.703 4.09867 117.682 4.46133 117.644 4.856C117.612 5.25067 117.551 5.69067 117.46 6.176L116.788 6.096C116.927 5.40267 117.007 4.79467 117.028 4.272C117.05 3.744 117.06 3.26133 117.06 2.824V2.112ZM124.628 1.392H125.26V5.648H124.628V1.392ZM123.476 3.2H124.844V3.752H123.476V3.2ZM123.044 1.528H123.676V5.608H123.044V1.528ZM120.404 5.992H125.26V8.624H124.604V6.536H120.404V5.992ZM121.644 1.92H122.308C122.308 2.496 122.201 3.024 121.988 3.504C121.78 3.984 121.47 4.41067 121.06 4.784C120.649 5.152 120.137 5.46667 119.524 5.728L119.196 5.232C119.734 5.01333 120.185 4.74933 120.548 4.44C120.91 4.13067 121.182 3.784 121.364 3.4C121.55 3.016 121.644 2.59733 121.644 2.144V1.92ZM119.484 1.92H121.876V2.464H119.484V1.92ZM126.659 2.04H129.987V5.384H126.659V2.04ZM129.339 2.576H127.307V4.848H129.339V2.576ZM131.315 1.384H131.979V6.688H131.315V1.384ZM131.771 3.584H133.043V4.136H131.771V3.584ZM127.475 7.92H132.299V8.464H127.475V7.92ZM127.475 6.184H128.131V8.152H127.475V6.184ZM136.402 1.96H136.986V2.184C136.986 2.41333 136.936 2.632 136.834 2.84C136.738 3.04267 136.602 3.22933 136.426 3.4C136.25 3.56533 136.042 3.712 135.802 3.84C135.568 3.96267 135.312 4.06667 135.034 4.152C134.757 4.23733 134.469 4.29867 134.17 4.336L133.922 3.808C134.184 3.78133 134.434 3.73333 134.674 3.664C134.92 3.59467 135.146 3.512 135.354 3.416C135.568 3.31467 135.752 3.2 135.906 3.072C136.061 2.944 136.181 2.80533 136.266 2.656C136.357 2.50667 136.402 2.34933 136.402 2.184V1.96ZM136.674 1.96H137.258V2.184C137.258 2.344 137.301 2.50133 137.386 2.656C137.477 2.80533 137.6 2.944 137.754 3.072C137.914 3.19467 138.098 3.30667 138.306 3.408C138.514 3.50933 138.738 3.59467 138.978 3.664C139.224 3.73333 139.477 3.78133 139.738 3.808L139.49 4.336C139.192 4.29867 138.904 4.23733 138.626 4.152C138.349 4.06667 138.09 3.96 137.85 3.832C137.616 3.704 137.41 3.55733 137.234 3.392C137.058 3.22133 136.92 3.03467 136.818 2.832C136.722 2.62933 136.674 2.41333 136.674 2.184V1.96ZM134.162 1.68H139.506V2.216H134.162V1.68ZM133.562 5.016H140.114V5.56H133.562V5.016ZM136.498 3.928H137.154V5.28H136.498V3.928ZM134.29 6.272H139.29V8.624H138.626V6.808H134.29V6.272ZM141.594 4.768H146.562V5.304H141.594V4.768ZM140.762 7.16H147.322V7.712H140.762V7.16ZM143.698 5H144.354V7.376H143.698V5ZM141.594 1.96H146.49V2.512H142.258V5.008H141.594V1.96ZM48.4 14.232H54.936V14.776H48.4V14.232ZM51.336 13.168H52V14.512H51.336V13.168ZM49.24 16.92H54.208V17.464H49.24V16.92ZM49.24 15.368H49.904V17.088H49.24V15.368ZM51.664 10.6C52.1813 10.6 52.6293 10.6587 53.008 10.776C53.392 10.888 53.688 11.0533 53.896 11.272C54.104 11.4853 54.208 11.7413 54.208 12.04C54.208 12.344 54.104 12.6053 53.896 12.824C53.688 13.0373 53.392 13.2027 53.008 13.32C52.6293 13.432 52.1813 13.488 51.664 13.488C51.1467 13.488 50.696 13.432 50.312 13.32C49.9333 13.2027 49.64 13.0373 49.432 12.824C49.224 12.6053 49.12 12.344 49.12 12.04C49.12 11.7413 49.224 11.4853 49.432 11.272C49.64 11.0533 49.9333 10.888 50.312 10.776C50.696 10.6587 51.1467 10.6 51.664 10.6ZM51.664 11.136C51.2907 11.136 50.9627 11.1733 50.68 11.248C50.4027 11.3173 50.1867 11.4213 50.032 11.56C49.8773 11.6933 49.8 11.8533 49.8 12.04C49.8 12.232 49.8773 12.3947 50.032 12.528C50.1867 12.6613 50.4027 12.7653 50.68 12.84C50.9627 12.9093 51.2907 12.944 51.664 12.944C52.048 12.944 52.3787 12.9093 52.656 12.84C52.9333 12.7653 53.1467 12.6613 53.296 12.528C53.4507 12.3947 53.528 12.232 53.528 12.04C53.528 11.8533 53.4507 11.6933 53.296 11.56C53.1467 11.4213 52.9333 11.3173 52.656 11.248C52.3787 11.1733 52.048 11.136 51.664 11.136ZM60.5034 10.384H61.1594V17.632H60.5034V10.384ZM61.0074 13.256H62.3434V13.816H61.0074V13.256ZM55.8954 15.328H56.4714C56.9194 15.328 57.33 15.3227 57.7034 15.312C58.082 15.296 58.4474 15.272 58.7994 15.24C59.1514 15.2027 59.5087 15.1493 59.8714 15.08L59.9354 15.624C59.562 15.6933 59.1967 15.7467 58.8394 15.784C58.4874 15.8213 58.1194 15.848 57.7354 15.864C57.3514 15.88 56.93 15.888 56.4714 15.888H55.8954V15.328ZM55.8794 11.056H59.1434V13.656H56.5514V15.552H55.8954V13.104H58.4874V11.6H55.8794V11.056ZM68.0628 10.392H68.7268V15.672H68.0628V10.392ZM64.0788 16.92H68.9508V17.464H64.0788V16.92ZM64.0788 15.136H64.7428V17.104H64.0788V15.136ZM64.8468 10.896C65.2094 10.896 65.5321 10.9707 65.8148 11.12C66.0974 11.2693 66.3214 11.48 66.4868 11.752C66.6521 12.0187 66.7348 12.3253 66.7348 12.672C66.7348 13.0187 66.6521 13.328 66.4868 13.6C66.3214 13.8667 66.0974 14.0773 65.8148 14.232C65.5321 14.3813 65.2094 14.456 64.8468 14.456C64.4894 14.456 64.1668 14.3813 63.8788 14.232C63.5961 14.0773 63.3721 13.8667 63.2068 13.6C63.0414 13.328 62.9588 13.0187 62.9588 12.672C62.9588 12.3253 63.0414 12.0187 63.2068 11.752C63.3721 11.48 63.5961 11.2693 63.8788 11.12C64.1668 10.9707 64.4894 10.896 64.8468 10.896ZM64.8468 11.472C64.6121 11.472 64.4014 11.5227 64.2148 11.624C64.0281 11.7253 63.8788 11.8667 63.7668 12.048C63.6601 12.2293 63.6068 12.4373 63.6068 12.672C63.6068 12.912 63.6601 13.1227 63.7668 13.304C63.8788 13.48 64.0281 13.6187 64.2148 13.72C64.4014 13.8213 64.6121 13.872 64.8468 13.872C65.0814 13.872 65.2921 13.8213 65.4788 13.72C65.6708 13.6187 65.8201 13.48 65.9268 13.304C66.0334 13.1227 66.0868 12.912 66.0868 12.672C66.0868 12.4373 66.0334 12.2293 65.9268 12.048C65.8201 11.8667 65.6708 11.7253 65.4788 11.624C65.2921 11.5227 65.0814 11.472 64.8468 11.472ZM73.6141 12.84H75.6221V13.384H73.6141V12.84ZM71.8621 11.008H72.4061V12.304C72.4061 12.704 72.3555 13.0987 72.2541 13.488C72.1581 13.8773 72.0195 14.24 71.8381 14.576C71.6568 14.912 71.4435 15.2107 71.1981 15.472C70.9581 15.7333 70.6941 15.9413 70.4061 16.096L69.9901 15.56C70.2568 15.432 70.5021 15.2533 70.7261 15.024C70.9555 14.7947 71.1555 14.5333 71.3261 14.24C71.4968 13.9413 71.6275 13.6293 71.7181 13.304C71.8141 12.9733 71.8621 12.64 71.8621 12.304V11.008ZM71.9981 11.008H72.5341V12.304C72.5341 12.6293 72.5795 12.952 72.6701 13.272C72.7661 13.592 72.8995 13.8933 73.0701 14.176C73.2408 14.4533 73.4381 14.7013 73.6621 14.92C73.8915 15.1387 74.1368 15.3093 74.3981 15.432L73.9981 15.968C73.7101 15.8187 73.4435 15.6187 73.1981 15.368C72.9528 15.1173 72.7395 14.8293 72.5581 14.504C72.3821 14.1787 72.2435 13.8293 72.1421 13.456C72.0461 13.0827 71.9981 12.6987 71.9981 12.304V11.008ZM75.2941 10.384H75.9501V17.632H75.2941V10.384ZM81.0535 12.192H82.6615V12.744H81.0535V12.192ZM82.4855 10.384H83.1495V14.616H82.4855V10.384ZM78.4535 14.976H83.1495V17.528H78.4535V14.976ZM82.5015 15.504H79.1095V16.984H82.5015V15.504ZM79.0375 11.072H79.5815V11.656C79.5815 12.0933 79.4962 12.5067 79.3255 12.896C79.1602 13.28 78.9255 13.616 78.6215 13.904C78.3175 14.1867 77.9655 14.4027 77.5655 14.552L77.2215 14.024C77.4882 13.928 77.7308 13.8 77.9495 13.64C78.1735 13.48 78.3682 13.296 78.5335 13.088C78.6988 12.8747 78.8242 12.648 78.9095 12.408C78.9948 12.1627 79.0375 11.912 79.0375 11.656V11.072ZM79.1655 11.072H79.7095V11.656C79.7095 11.9653 79.7815 12.2667 79.9255 12.56C80.0695 12.848 80.2748 13.1067 80.5415 13.336C80.8082 13.56 81.1148 13.736 81.4615 13.864L81.1255 14.392C80.7308 14.248 80.3868 14.04 80.0935 13.768C79.8002 13.4907 79.5708 13.1707 79.4055 12.808C79.2455 12.44 79.1655 12.056 79.1655 11.656V11.072ZM77.4295 10.848H81.2935V11.392H77.4295V10.848ZM86.0179 14.672H92.5779V15.208H86.0179V14.672ZM88.9539 14.92H89.6099V17.624H88.9539V14.92ZM86.8499 10.68H87.5059V11.672H91.0819V10.68H91.7459V13.808H86.8499V10.68ZM87.5059 12.208V13.264H91.0819V12.208H87.5059ZM93.2173 14.08H99.7773V14.624H93.2173V14.08ZM96.2093 14.424H96.8733V16.088H96.2093V14.424ZM94.0653 10.728H98.9213V13.264H94.0653V10.728ZM98.2733 11.256H94.7133V12.736H98.2733V11.256ZM94.0493 16.92H99.0493V17.464H94.0493V16.92ZM94.0493 15.392H94.7133V17.104H94.0493V15.392ZM102.358 17V16.392H103.67V12.016H102.622V11.552C102.883 11.504 103.11 11.4453 103.302 11.376C103.499 11.3067 103.678 11.2267 103.838 11.136H104.398V16.392H105.574V17H102.358ZM108.691 10.728C109.054 10.728 109.374 10.792 109.651 10.92C109.929 11.0427 110.145 11.216 110.299 11.44C110.459 11.6587 110.539 11.9173 110.539 12.216C110.539 12.504 110.459 12.7627 110.299 12.992C110.145 13.216 109.929 13.392 109.651 13.52C109.374 13.6427 109.054 13.704 108.691 13.704C108.339 13.704 108.025 13.6427 107.747 13.52C107.47 13.392 107.251 13.216 107.091 12.992C106.931 12.7627 106.851 12.504 106.851 12.216C106.851 11.9173 106.931 11.6587 107.091 11.44C107.251 11.216 107.47 11.0427 107.747 10.92C108.025 10.792 108.339 10.728 108.691 10.728ZM108.691 11.272C108.462 11.272 108.257 11.312 108.075 11.392C107.894 11.472 107.75 11.584 107.643 11.728C107.542 11.8667 107.491 12.0293 107.491 12.216C107.491 12.3973 107.542 12.56 107.643 12.704C107.75 12.8427 107.894 12.952 108.075 13.032C108.257 13.112 108.462 13.152 108.691 13.152C108.931 13.152 109.142 13.112 109.323 13.032C109.505 12.952 109.646 12.8427 109.747 12.704C109.854 12.56 109.907 12.3973 109.907 12.216C109.907 12.0293 109.854 11.8667 109.747 11.728C109.646 11.584 109.505 11.472 109.323 11.392C109.142 11.312 108.931 11.272 108.691 11.272ZM108.403 14.512H109.067V17.4H108.403V14.512ZM111.603 10.392H112.259V17.624H111.603V10.392ZM106.403 14.872L106.315 14.312C106.763 14.312 107.254 14.3067 107.787 14.296C108.326 14.2853 108.878 14.2613 109.443 14.224C110.014 14.1867 110.561 14.128 111.083 14.048L111.131 14.544C110.593 14.6453 110.043 14.72 109.483 14.768C108.923 14.8107 108.379 14.8373 107.851 14.848C107.329 14.8587 106.846 14.8667 106.403 14.872ZM48.808 26V20.136H49.544V23.08H49.56L52.016 20.136H52.856L51.016 22.36L53.136 26H52.312L50.552 22.944L49.544 24.144V26H48.808ZM52.9345 26L54.9185 20.136H55.7425L57.7345 26H56.9505L55.9265 22.72C55.8198 22.384 55.7185 22.056 55.6225 21.736C55.5265 21.4107 55.4305 21.0773 55.3345 20.736H55.3025C55.2118 21.0773 55.1158 21.4107 55.0145 21.736C54.9185 22.056 54.8198 22.384 54.7185 22.72L53.6785 26H52.9345ZM53.9665 24.208V23.624H56.6705V24.208H53.9665ZM58.4177 26V20.136H59.3057L60.4257 23.272C60.5004 23.4693 60.5724 23.672 60.6417 23.88C60.711 24.088 60.7804 24.2933 60.8497 24.496H60.8817C60.9564 24.2933 61.0257 24.088 61.0897 23.88C61.159 23.672 61.2257 23.4693 61.2897 23.272L62.4097 20.136H63.2977V26H62.6097V22.752C62.6097 22.5813 62.615 22.3973 62.6257 22.2C62.6364 21.9973 62.6497 21.7947 62.6657 21.592C62.6817 21.384 62.695 21.1947 62.7057 21.024H62.6737L62.2017 22.36L61.0977 25.408H60.6017L59.4897 22.36L59.0177 21.024H58.9857C59.007 21.1947 59.023 21.384 59.0337 21.592C59.0497 21.7947 59.0604 21.9973 59.0657 22.2C59.0764 22.3973 59.0817 22.5813 59.0817 22.752V26H58.4177ZM66.9579 26.104C66.5952 26.104 66.2565 26.0373 65.9419 25.904C65.6325 25.7653 65.3632 25.5653 65.1339 25.304C64.9045 25.0427 64.7259 24.7253 64.5979 24.352C64.4699 23.9733 64.4059 23.5467 64.4059 23.072C64.4059 22.5973 64.4699 22.1733 64.5979 21.8C64.7312 21.4213 64.9152 21.1013 65.1499 20.84C65.3845 20.5787 65.6592 20.3787 65.9739 20.24C66.2885 20.1013 66.6325 20.032 67.0059 20.032C67.3632 20.032 67.6779 20.1067 67.9499 20.256C68.2219 20.4 68.4432 20.5653 68.6139 20.752L68.2139 21.232C68.0592 21.0667 67.8832 20.9333 67.6859 20.832C67.4885 20.7307 67.2645 20.68 67.0139 20.68C66.6459 20.68 66.3232 20.776 66.0459 20.968C65.7685 21.16 65.5525 21.4347 65.3979 21.792C65.2432 22.144 65.1659 22.5627 65.1659 23.048C65.1659 23.544 65.2405 23.9733 65.3899 24.336C65.5392 24.6933 65.7499 24.9707 66.0219 25.168C66.2939 25.36 66.6165 25.456 66.9899 25.456C67.2672 25.456 67.5152 25.3973 67.7339 25.28C67.9579 25.1627 68.1632 25 68.3499 24.792L68.7579 25.264C68.5285 25.5307 68.2672 25.7387 67.9739 25.888C67.6805 26.032 67.3419 26.104 66.9579 26.104ZM74.6245 21.088H76.4405V21.64H74.6245V21.088ZM72.7285 19.824H73.2645V20.712C73.2645 21.176 73.1818 21.6107 73.0165 22.016C72.8512 22.4213 72.6192 22.776 72.3205 23.08C72.0218 23.3787 71.6725 23.608 71.2725 23.768L70.9205 23.24C71.1925 23.1387 71.4378 23.0027 71.6565 22.832C71.8805 22.6613 72.0698 22.464 72.2245 22.24C72.3845 22.016 72.5072 21.776 72.5925 21.52C72.6832 21.2587 72.7285 20.9893 72.7285 20.712V19.824ZM72.8485 19.824H73.3845V20.736C73.3845 20.9867 73.4272 21.232 73.5125 21.472C73.5978 21.712 73.7178 21.936 73.8725 22.144C74.0272 22.352 74.2112 22.536 74.4245 22.696C74.6432 22.856 74.8832 22.984 75.1445 23.08L74.7845 23.6C74.4005 23.4453 74.0618 23.2267 73.7685 22.944C73.4805 22.6613 73.2538 22.3307 73.0885 21.952C72.9285 21.5733 72.8485 21.168 72.8485 20.736V19.824ZM76.2005 19.392H76.8645V24.8H76.2005V19.392ZM72.2165 25.92H77.0325V26.464H72.2165V25.92ZM72.2165 24.2H72.8805V26.168H72.2165V24.2ZM81.9759 21.264H83.5999V21.816H81.9759V21.264ZM83.3999 19.384H84.0639V23.696H83.3999V19.384ZM81.6799 23.92C82.1812 23.92 82.6105 23.9733 82.9679 24.08C83.3305 24.1867 83.6079 24.3413 83.7999 24.544C83.9919 24.7413 84.0879 24.984 84.0879 25.272C84.0879 25.6987 83.8719 26.0293 83.4399 26.264C83.0132 26.4987 82.4265 26.616 81.6799 26.616C80.9332 26.616 80.3439 26.4987 79.9119 26.264C79.4852 26.0293 79.2719 25.6987 79.2719 25.272C79.2719 24.984 79.3679 24.7413 79.5599 24.544C79.7572 24.3413 80.0345 24.1867 80.3919 24.08C80.7545 23.9733 81.1839 23.92 81.6799 23.92ZM81.6799 24.44C81.3172 24.44 81.0052 24.472 80.7439 24.536C80.4825 24.6 80.2799 24.6933 80.1359 24.816C79.9972 24.9387 79.9279 25.0907 79.9279 25.272C79.9279 25.4427 79.9972 25.5893 80.1359 25.712C80.2799 25.8347 80.4825 25.9307 80.7439 26C81.0052 26.064 81.3172 26.096 81.6799 26.096C82.0479 26.096 82.3599 26.064 82.6159 26C82.8772 25.9307 83.0772 25.8347 83.2159 25.712C83.3599 25.5893 83.4319 25.4427 83.4319 25.272C83.4319 25.0907 83.3599 24.9387 83.2159 24.816C83.0772 24.6933 82.8772 24.6 82.6159 24.536C82.3599 24.472 82.0479 24.44 81.6799 24.44ZM79.9519 20.12H80.4959V20.704C80.4959 21.1467 80.4105 21.5627 80.2399 21.952C80.0745 22.336 79.8399 22.6747 79.5359 22.968C79.2319 23.256 78.8799 23.4773 78.4799 23.632L78.1359 23.104C78.4079 23.008 78.6532 22.8773 78.8719 22.712C79.0959 22.5467 79.2879 22.3573 79.4479 22.144C79.6132 21.9307 79.7385 21.7013 79.8239 21.456C79.9092 21.2107 79.9519 20.96 79.9519 20.704V20.12ZM80.0799 20.12H80.6239V20.696C80.6239 21.0053 80.6959 21.3067 80.8399 21.6C80.9839 21.8933 81.1892 22.152 81.4559 22.376C81.7225 22.6 82.0292 22.776 82.3759 22.904L82.0399 23.432C81.6452 23.288 81.3012 23.08 81.0079 22.808C80.7145 22.5307 80.4852 22.2107 80.3199 21.848C80.1599 21.4853 80.0799 21.1013 80.0799 20.696V20.12ZM78.3439 19.912H82.2079V20.456H78.3439V19.912Z" fill="#767676"/>
</g>
<defs>
<linearGradient id="paint0_linear_17733_1384" x1="13.1143" y1="14.9997" x2="42.0001" y2="14.9997" gradientUnits="userSpaceOnUse">
<stop stop-color="#F8DE00"/>
<stop offset="0.31" stop-color="#FDE000"/>
<stop offset="0.49" stop-color="#F8DE00"/>
<stop offset="0.62" stop-color="#F5D800"/>
<stop offset="0.78" stop-color="#ECCA00"/>
<stop offset="0.95" stop-color="#DEB100"/>
<stop offset="1" stop-color="#DAA900"/>
</linearGradient>
<clipPath id="clip0_17733_1384">
<rect width="148" height="30" fill="white"/>
</clipPath>
<clipPath id="clip1_17733_1384">
<rect width="42" height="30" fill="white"/>
</clipPath>
</defs>
</svg>
